<svg width="53" height="35" fill="none" xmlns="http://www.w3.org/2000/svg"><path d="M28.159 18.617c3.275 0 5.955 3.443 5.955 4.303 0 .86-2.68 3.73-5.955 3.73s-5.657-3.73-5.657-3.73 2.382-4.303 5.657-4.303z" fill="#FFFDFB"/><path d="M18.928 19.478l3.573 3.442m0 0l-3.573 3.443m3.573-3.443s2.383 3.73 5.658 3.73c3.275 0 5.955-2.87 5.955-3.73 0-.86-2.68-4.303-5.955-4.303s-5.657 4.303-5.657 4.303z" stroke="#FFFDFB" stroke-width="2" stroke-linecap="round" stroke-linejoin="round"/><path d="M13.482 6.607h0c.438-.05.785-.35.892-.735.217-.78.97-1.346 1.69-1.683.734-.345 1.617-.538 2.299-.427h0c.437.072.865-.123 1.084-.472h0c.38-.604 1.045-1.013 1.729-1.207.684-.195 1.47-.199 2.126.11h0a1.1 1.1 0 001.188-.162h0c.538-.474 1.296-.684 2.009-.684.713 0 1.471.209 2.011.684h0a1.1 1.1 0 001.188.162c.655-.309 1.587-.3 2.388-.12.412.093.82.237 1.174.431.35.192.677.45.888.786h0c.22.349.647.544 1.085.472L13.482 6.607zm0 0a.973.973 0 00-.37.14 3.44 3.44 0 00-.314.216 9.143 9.143 0 00-.753.65c-.525.501-1.117 1.16-1.44 1.753l-.403.739h32.596l-.404-.74A13.347 13.347 0 0040.695 7a3.016 3.016 0 00-.21-.207 1.078 1.078 0 00-.112-.088l-.002-.001a.584.584 0 00-.257-.097h0a1.036 1.036 0 01-.893-.735h0m-25.74.735l25.74-.735m-23.883.268h0a2.034 2.034 0 01-1.691 1.454 2.468 2.468 0 00-.245.167 9.842 9.842 0 00-1.393 1.345h29.055a14.218 14.218 0 00-.628-.865 9.102 9.102 0 00-.472-.56 2.781 2.781 0 00-.099-.1 2.03 2.03 0 01-1.607-1.441c-.094-.339-.502-.737-1.143-1.041-.624-.296-1.297-.419-1.72-.35h-.001a2.076 2.076 0 01-2.093-.927M15.338 6.14l7.538-3.042a2.1 2.1 0 002.275-.316c.307-.271.805-.435 1.348-.435s1.041.163 1.35.435l.33-.376-.33.376a2.1 2.1 0 002.275.316h0c.368-.173 1.043-.206 1.743-.049.338.076.655.19.912.332.262.144.433.299.522.44M15.338 6.14c.096-.347.508-.745 1.15-1.046m-1.15 1.046l1.15-1.046M33.3 3.822l.424-.266-.424.266s0 0 0 0zm5.92 2.05c-.213-.769-.96-1.337-1.677-1.677m1.677 1.677l-1.677-1.677m-21.056.9c.626-.294 1.299-.413 1.714-.346m-1.714.345l1.714-.345m0 0a2.075 2.075 0 002.092-.927m-2.092.927l2.092-.927m0 0c.213-.339.637-.63 1.155-.777m-1.155.777l1.155-.777m0 0c.517-.147 1.044-.127 1.427.053l-1.427-.053zm16.095 1.15c-.733-.347-1.619-.546-2.311-.433l2.31.433zM13.668 7.583h-.002.002zm35.495 3.378h0l3.327 22.407a.957.957 0 01-.241.782c-.199.22-.49.35-.802.35H1.553c-.312 0-.604-.13-.802-.35a.956.956 0 01-.24-.782h0L3.836 10.96h0c.07-.477.503-.857 1.042-.857H9.35l.09-.387c.648-2.805 3.214-3.652 3.515-3.748l.197-.063.095-.183c1.388-2.681 4.262-2.816 4.58-2.827l.203-.007.141-.146C19.87.979 22.17.961 23.403 1.266l.195.048.174-.1c2.15-1.231 4.364-.625 5.456 0l.174.1.195-.048c1.232-.305 3.532-.287 5.23 1.477l.141.146.203.007c.322.01 3.192.145 4.58 2.827l.096.183.197.063c.295.094 2.864.937 3.515 3.748l.09.387h4.472c.54 0 .971.38 1.042.857zM1.062 33.658l-.088.575h51.051l-.087-.575-3.479-22.862-.064-.424H4.605l-.065.424-3.478 22.862z" fill="#FFFDFB" stroke="#FFFDFB"/></svg>